<?xml version="1.0" encoding="UTF-8" standalone="no"?>
<!DOCTYPE svg PUBLIC "-//W3C//DTD SVG 1.1//EN"
 "http://www.w3.org/Graphics/SVG/1.1/DTD/svg11.dtd">
<!-- Generated by graphviz version 2.38.0 (20140413.2041)
 -->
<!-- Title: G Pages: 1 -->
<svg width="497pt" height="654pt"
 viewBox="0.00 0.00 497.00 654.00" xmlns="http://www.w3.org/2000/svg" xmlns:xlink="http://www.w3.org/1999/xlink">
<g id="graph0" class="graph" transform="scale(1 1) rotate(0) translate(4 650)">
<title>G</title>
<polygon fill="white" stroke="none" points="-4,4 -4,-650 493,-650 493,4 -4,4"/>
<g id="clust1" class="cluster"><title>cluster_Global</title>
<path fill="none" stroke="gray" d="M20,-8C20,-8 469,-8 469,-8 475,-8 481,-14 481,-20 481,-20 481,-626 481,-626 481,-632 475,-638 469,-638 469,-638 20,-638 20,-638 14,-638 8,-632 8,-626 8,-626 8,-20 8,-20 8,-14 14,-8 20,-8"/>
<text text-anchor="middle" x="244.5" y="-625.2" font-family="Times,serif" font-size="11.00" fill="gray">Global</text>
</g>
<g id="clust2" class="cluster"><title>cluster_\willgriffin</title>
<path fill="none" stroke="gray" d="M28,-16C28,-16 461,-16 461,-16 467,-16 473,-22 473,-28 473,-28 473,-598 473,-598 473,-604 467,-610 461,-610 461,-610 28,-610 28,-610 22,-610 16,-604 16,-598 16,-598 16,-28 16,-28 16,-22 22,-16 28,-16"/>
<text text-anchor="middle" x="244.5" y="-597.2" font-family="Times,serif" font-size="11.00" fill="gray">willgriffin</text>
</g>
<g id="clust3" class="cluster"><title>cluster_\willgriffin\MariaBlockChain</title>
<path fill="none" stroke="gray" d="M36,-24C36,-24 453,-24 453,-24 459,-24 465,-30 465,-36 465,-36 465,-570 465,-570 465,-576 459,-582 453,-582 453,-582 36,-582 36,-582 30,-582 24,-576 24,-570 24,-570 24,-36 24,-36 24,-30 30,-24 36,-24"/>
<text text-anchor="middle" x="244.5" y="-569.2" font-family="Times,serif" font-size="11.00" fill="gray">MariaBlockChain</text>
</g>
<!-- \\willgriffin\\MariaBlockChain\\Transaction -->
<g id="node1" class="node"><title>\\willgriffin\\MariaBlockChain\\Transaction</title>
<polygon fill="none" stroke="black" points="428,-554 354,-554 354,-518 428,-518 428,-554"/>
<text text-anchor="middle" x="391" y="-533.2" font-family="Courier,monospace" font-size="11.00">Transaction</text>
</g>
<!-- \\willgriffin\\MariaBlockChain\\Object -->
<g id="node2" class="node"><title>\\willgriffin\\MariaBlockChain\\Object</title>
<polygon fill="none" stroke="black" points="232.5,-311 178.5,-311 178.5,-275 232.5,-275 232.5,-311"/>
<text text-anchor="middle" x="205.5" y="-290.2" font-family="Courier,monospace" font-size="11.00">Object</text>
</g>
<!-- \\willgriffin\\MariaBlockChain\\Transaction&#45;&gt;\\willgriffin\\MariaBlockChain\\Object -->
<g id="edge1" class="edge"><title>\\willgriffin\\MariaBlockChain\\Transaction&#45;&gt;\\willgriffin\\MariaBlockChain\\Object</title>
<path fill="none" stroke="black" d="M353.791,-526.886C343.427,-522.822 332.83,-517.067 325,-509 262.39,-444.502 311.207,-388.498 253,-320 249.77,-316.199 245.862,-312.808 241.7,-309.822"/>
<polygon fill="none" stroke="black" points="243.255,-306.663 232.937,-304.259 239.504,-312.573 243.255,-306.663"/>
</g>
<!-- \\willgriffin\\MariaBlockChain\\Common -->
<g id="node13" class="node"><title>\\willgriffin\\MariaBlockChain\\Common</title>
<polygon fill="none" stroke="black" points="86,-338 32,-338 32,-302 86,-302 86,-338"/>
<text text-anchor="middle" x="59" y="-317.2" font-family="Courier,monospace" font-size="11.00">Common</text>
</g>
<!-- \\willgriffin\\MariaBlockChain\\Object&#45;&gt;\\willgriffin\\MariaBlockChain\\Common -->
<g id="edge2" class="edge"><title>\\willgriffin\\MariaBlockChain\\Object&#45;&gt;\\willgriffin\\MariaBlockChain\\Common</title>
<path fill="none" stroke="black" d="M178.332,-297.889C155.458,-302.164 122.008,-308.414 96.5026,-313.179"/>
<polygon fill="none" stroke="black" points="95.6485,-309.778 86.4615,-315.056 96.9342,-316.659 95.6485,-309.778"/>
</g>
<!-- \\willgriffin\\MariaBlockChain\\AddressesController -->
<g id="node3" class="node"><title>\\willgriffin\\MariaBlockChain\\AddressesController</title>
<polygon fill="none" stroke="black" points="449,-500 333,-500 333,-464 449,-464 449,-500"/>
<text text-anchor="middle" x="391" y="-479.2" font-family="Courier,monospace" font-size="11.00">AddressesController</text>
</g>
<!-- \\willgriffin\\MariaBlockChain\\AddressesController&#45;&gt;\\willgriffin\\MariaBlockChain\\Object -->
<g id="edge3" class="edge"><title>\\willgriffin\\MariaBlockChain\\AddressesController&#45;&gt;\\willgriffin\\MariaBlockChain\\Object</title>
<path fill="none" stroke="black" d="M337.316,-463.983C332.897,-461.35 328.709,-458.368 325,-455 274.659,-409.286 300.207,-368.943 253,-320 249.614,-316.489 245.673,-313.287 241.545,-310.413"/>
<polygon fill="none" stroke="black" points="243.252,-307.352 232.925,-304.983 239.52,-313.275 243.252,-307.352"/>
</g>
<!-- \\willgriffin\\MariaBlockChain\\BlocksController -->
<g id="node4" class="node"><title>\\willgriffin\\MariaBlockChain\\BlocksController</title>
<polygon fill="none" stroke="black" points="441.5,-446 340.5,-446 340.5,-410 441.5,-410 441.5,-446"/>
<text text-anchor="middle" x="391" y="-425.2" font-family="Courier,monospace" font-size="11.00">BlocksController</text>
</g>
<!-- \\willgriffin\\MariaBlockChain\\BlocksController&#45;&gt;\\willgriffin\\MariaBlockChain\\Object -->
<g id="edge4" class="edge"><title>\\willgriffin\\MariaBlockChain\\BlocksController&#45;&gt;\\willgriffin\\MariaBlockChain\\Object</title>
<path fill="none" stroke="black" d="M340.46,-410.231C335.048,-407.479 329.777,-404.403 325,-401 285.768,-373.056 290.298,-350.478 253,-320 249.309,-316.984 245.24,-314.097 241.091,-311.407"/>
<polygon fill="none" stroke="black" points="242.915,-308.42 232.558,-306.186 239.261,-314.391 242.915,-308.42"/>
</g>
<!-- \\willgriffin\\MariaBlockChain\\TransactionOutput -->
<g id="node5" class="node"><title>\\willgriffin\\MariaBlockChain\\TransactionOutput</title>
<polygon fill="none" stroke="black" points="444,-392 338,-392 338,-356 444,-356 444,-392"/>
<text text-anchor="middle" x="391" y="-371.2" font-family="Courier,monospace" font-size="11.00">TransactionOutput</text>
</g>
<!-- \\willgriffin\\MariaBlockChain\\TransactionOutput&#45;&gt;\\willgriffin\\MariaBlockChain\\Object -->
<g id="edge5" class="edge"><title>\\willgriffin\\MariaBlockChain\\TransactionOutput&#45;&gt;\\willgriffin\\MariaBlockChain\\Object</title>
<path fill="none" stroke="black" d="M345.859,-355.901C338.864,-352.965 331.722,-349.927 325,-347 296.943,-334.784 265.429,-320.391 241.956,-309.537"/>
<polygon fill="none" stroke="black" points="243.287,-306.296 232.742,-305.267 240.344,-312.647 243.287,-306.296"/>
</g>
<!-- \\willgriffin\\MariaBlockChain\\TransactionsController -->
<g id="node6" class="node"><title>\\willgriffin\\MariaBlockChain\\TransactionsController</title>
<polygon fill="none" stroke="black" points="457,-338 325,-338 325,-302 457,-302 457,-338"/>
<text text-anchor="middle" x="391" y="-317.2" font-family="Courier,monospace" font-size="11.00">TransactionsController</text>
</g>
<!-- \\willgriffin\\MariaBlockChain\\TransactionsController&#45;&gt;\\willgriffin\\MariaBlockChain\\Object -->
<g id="edge6" class="edge"><title>\\willgriffin\\MariaBlockChain\\TransactionsController&#45;&gt;\\willgriffin\\MariaBlockChain\\Object</title>
<path fill="none" stroke="black" d="M324.788,-310.405C297.274,-306.356 266.275,-301.795 242.916,-298.358"/>
<polygon fill="none" stroke="black" points="243.164,-294.857 232.761,-296.864 242.145,-301.782 243.164,-294.857"/>
</g>
<!-- \\willgriffin\\MariaBlockChain\\Account -->
<g id="node7" class="node"><title>\\willgriffin\\MariaBlockChain\\Account</title>
<polygon fill="none" stroke="black" points="418,-284 364,-284 364,-248 418,-248 418,-284"/>
<text text-anchor="middle" x="391" y="-263.2" font-family="Courier,monospace" font-size="11.00">Account</text>
</g>
<!-- \\willgriffin\\MariaBlockChain\\Account&#45;&gt;\\willgriffin\\MariaBlockChain\\Object -->
<g id="edge7" class="edge"><title>\\willgriffin\\MariaBlockChain\\Account&#45;&gt;\\willgriffin\\MariaBlockChain\\Object</title>
<path fill="none" stroke="black" d="M363.709,-269.868C331.96,-274.54 278.39,-282.422 242.738,-287.668"/>
<polygon fill="none" stroke="black" points="242.126,-284.22 232.742,-289.139 243.145,-291.146 242.126,-284.22"/>
</g>
<!-- \\willgriffin\\MariaBlockChain\\Block -->
<g id="node8" class="node"><title>\\willgriffin\\MariaBlockChain\\Block</title>
<polygon fill="none" stroke="black" points="418,-230 364,-230 364,-194 418,-194 418,-230"/>
<text text-anchor="middle" x="391" y="-209.2" font-family="Courier,monospace" font-size="11.00">Block</text>
</g>
<!-- \\willgriffin\\MariaBlockChain\\Block&#45;&gt;\\willgriffin\\MariaBlockChain\\Object -->
<g id="edge8" class="edge"><title>\\willgriffin\\MariaBlockChain\\Block&#45;&gt;\\willgriffin\\MariaBlockChain\\Object</title>
<path fill="none" stroke="black" d="M363.978,-222.573C352.059,-227.477 337.772,-233.439 325,-239 296.943,-251.216 265.429,-265.609 241.956,-276.463"/>
<polygon fill="none" stroke="black" points="240.344,-273.353 232.742,-280.733 243.287,-279.704 240.344,-273.353"/>
</g>
<!-- \\willgriffin\\MariaBlockChain\\AccountsController -->
<g id="node9" class="node"><title>\\willgriffin\\MariaBlockChain\\AccountsController</title>
<polygon fill="none" stroke="black" points="446.5,-176 335.5,-176 335.5,-140 446.5,-140 446.5,-176"/>
<text text-anchor="middle" x="391" y="-155.2" font-family="Courier,monospace" font-size="11.00">AccountsController</text>
</g>
<!-- \\willgriffin\\MariaBlockChain\\AccountsController&#45;&gt;\\willgriffin\\MariaBlockChain\\Object -->
<g id="edge9" class="edge"><title>\\willgriffin\\MariaBlockChain\\AccountsController&#45;&gt;\\willgriffin\\MariaBlockChain\\Object</title>
<path fill="none" stroke="black" d="M341.143,-176.109C335.552,-178.815 330.053,-181.787 325,-185 288.28,-208.349 252.218,-243.455 229.703,-267.252"/>
<polygon fill="none" stroke="black" points="226.871,-265.157 222.606,-274.856 231.988,-269.934 226.871,-265.157"/>
</g>
<!-- \\willgriffin\\MariaBlockChain\\Address -->
<g id="node10" class="node"><title>\\willgriffin\\MariaBlockChain\\Address</title>
<polygon fill="none" stroke="black" points="418,-122 364,-122 364,-86 418,-86 418,-122"/>
<text text-anchor="middle" x="391" y="-101.2" font-family="Courier,monospace" font-size="11.00">Address</text>
</g>
<!-- \\willgriffin\\MariaBlockChain\\Address&#45;&gt;\\willgriffin\\MariaBlockChain\\Object -->
<g id="edge10" class="edge"><title>\\willgriffin\\MariaBlockChain\\Address&#45;&gt;\\willgriffin\\MariaBlockChain\\Object</title>
<path fill="none" stroke="black" d="M363.898,-111.198C351.278,-115.544 336.43,-122.01 325,-131 277.182,-168.61 239.472,-230.267 220.323,-265.679"/>
<polygon fill="none" stroke="black" points="217.011,-264.455 215.421,-274.93 223.196,-267.733 217.011,-264.455"/>
</g>
<!-- \\willgriffin\\MariaBlockChain\\MariaBlockChain -->
<g id="node11" class="node"><title>\\willgriffin\\MariaBlockChain\\MariaBlockChain</title>
<polygon fill="none" stroke="black" points="253,-365 158,-365 158,-329 253,-329 253,-365"/>
<text text-anchor="middle" x="205.5" y="-344.2" font-family="Courier,monospace" font-size="11.00">MariaBlockChain</text>
</g>
<!-- \\willgriffin\\MariaBlockChain\\MariaBlockChain&#45;&gt;\\willgriffin\\MariaBlockChain\\Common -->
<g id="edge11" class="edge"><title>\\willgriffin\\MariaBlockChain\\MariaBlockChain&#45;&gt;\\willgriffin\\MariaBlockChain\\Common</title>
<path fill="none" stroke="black" d="M157.984,-338.308C137.935,-334.562 114.846,-330.248 96.1183,-326.749"/>
<polygon fill="none" stroke="black" points="96.6825,-323.294 86.2097,-324.897 95.3967,-330.175 96.6825,-323.294"/>
</g>
<!-- \\willgriffin\\MariaBlockChain\\TransactionInput -->
<g id="node12" class="node"><title>\\willgriffin\\MariaBlockChain\\TransactionInput</title>
<polygon fill="none" stroke="black" points="441.5,-68 340.5,-68 340.5,-32 441.5,-32 441.5,-68"/>
<text text-anchor="middle" x="391" y="-47.2" font-family="Courier,monospace" font-size="11.00">TransactionInput</text>
</g>
<!-- \\willgriffin\\MariaBlockChain\\TransactionInput&#45;&gt;\\willgriffin\\MariaBlockChain\\Object -->
<g id="edge12" class="edge"><title>\\willgriffin\\MariaBlockChain\\TransactionInput&#45;&gt;\\willgriffin\\MariaBlockChain\\Object</title>
<path fill="none" stroke="black" d="M340.304,-66.3856C334.798,-69.4028 329.547,-72.9194 325,-77 265.933,-130.005 230.237,-219.645 215.064,-264.969"/>
<polygon fill="none" stroke="black" points="211.659,-264.124 211.891,-274.716 218.315,-266.291 211.659,-264.124"/>
</g>
</g>
</svg>
